PathFileType	3	(X/Y/Z)	RCH0000002 BBF 15.c3d
DataRate	CameraRate	NumFrames	NumMarkers	Units	OrigDataRate	OrigDataStartFrame	OrigNumFrames
100.0	100.0	11	23	mm	100.0	243	276
Frame#	Time	T2			MAN			LASI			RASI			LPSI			LPAT			LKNE			LANK			LMED			LHEE			LTOE			RPAT			RKNE			RANK			RMED			RHEE			RTOE			RPSI			T10			RTHI			LTHI			RTIB			LTIB			
		X1	Y1	Z1	X2	Y2	Z2	X3	Y3	Z3	X4	Y4	Z4	X5	Y5	Z5	X6	Y6	Z6	X7	Y7	Z7	X8	Y8	Z8	X9	Y9	Z9	X10	Y10	Z10	X11	Y11	Z11	X12	Y12	Z12	X13	Y13	Z13	X14	Y14	Z14	X15	Y15	Z15	X16	Y16	Z16	X17	Y17	Z17	X18	Y18	Z18	X19	Y19	Z19	X20	Y20	Z20	X21	Y21	Z21	X22	Y22	Z22	X23	Y23	Z23	

243	2.420	-84.91916	8.67824	922.69023	-213.37245	-1.21447	962.76288	-148.56272	110.52329	626.42672	-100.09170	-59.23431	626.28388	-239.93124	27.80411	675.02190	-203.64532	80.49741	337.77536	-266.07246	131.93920	321.43056	-439.24472	140.34285	110.05558	-429.61046	71.59642	123.78492	-456.03604	101.60134	158.12777	-403.25753	103.04672	77.99759	-12.83766	15.28630	380.29934	-33.54514	-49.42747	337.93700	-71.57691	-103.06186	76.29880	-99.58024	-37.96564	79.03161	-125.16923	-81.91576	103.20180	-37.14962	-58.57482	68.84052	-223.23021	-39.23815	674.21153	-213.09709	0.88788	770.25245	-43.51228	-119.95131	448.65182	-243.49091	195.16834	447.87900	-31.90179	-134.53433	238.27786	-339.51842	199.63194	233.51944	
244	2.430	-73.89304	8.23860	922.80783	-202.83532	-2.07908	961.62739	-135.86531	109.07122	623.59191	-88.17146	-60.63042	627.52802	-227.61749	28.22068	674.13344	-185.87241	77.43045	334.39901	-248.30154	128.89902	317.80449	-428.26926	138.99668	113.82058	-419.41282	70.04225	126.44658	-443.59733	100.35704	162.30745	-394.56397	101.41494	79.68978	-6.51509	12.25894	377.95980	-28.05237	-52.35148	336.21847	-70.79649	-104.76533	74.87414	-98.96152	-39.75964	78.54929	-123.97362	-84.00969	102.67758	-36.66935	-60.02421	67.76005	-210.96462	-39.01946	675.45733	-200.60741	1.87947	769.17965	-35.05521	-122.64738	447.35873	-227.84601	192.25246	444.54327	-28.07512	-136.87034	236.00695	-322.87163	197.11373	232.75568	
245	2.440	-63.00810	8.10785	923.45170	-192.39082	-2.51119	961.09433	-123.33005	107.41225	621.26371	-76.72830	-62.30833	629.47766	-215.55296	28.72586	673.92712	-167.70166	74.02386	331.80542	-229.97439	125.66221	314.73098	-415.92821	137.43308	117.71012	-407.78424	68.26982	129.18227	-429.92763	98.82417	166.42315	-384.30151	99.68422	81.68114	-0.98874	8.40380	376.47458	-23.58768	-55.91562	335.33589	-70.61303	-106.39699	74.03730	-98.84441	-41.46394	78.71403	-123.37529	-86.00776	102.74037	-36.74046	-61.44886	67.16923	-199.08025	-38.71994	677.42110	-188.39162	3.07096	768.76925	-27.63043	-125.98929	446.79010	-211.82851	189.16808	441.74939	-25.31351	-139.66150	234.30788	-305.46626	194.36956	232.42615	
246	2.450	-52.28002	8.30687	924.65170	-182.04053	-2.49827	961.20536	-110.97844	105.56023	619.57197	-65.75232	-64.24440	632.07590	-203.73575	29.24831	674.44804	-149.27095	70.36476	330.17444	-211.24760	122.29523	312.40141	-402.25817	135.61197	121.63187	-394.64607	66.24933	131.90052	-415.08000	96.91906	170.35262	-372.36664	97.86754	83.93179	3.67571	3.88776	375.73937	-20.16254	-60.02127	335.21426	-70.75547	-107.92775	73.67586	-98.98115	-43.05336	79.38702	-123.14924	-87.89567	103.23053	-37.09135	-62.80464	66.97483	-187.56894	-38.40045	680.05301	-176.48012	4.37566	769.05998	-21.19347	-129.85331	446.88427	-195.54737	185.98799	439.67053	-23.49977	-142.82937	233.11985	-287.52630	191.42391	232.67193	
247	2.460	-41.71755	8.84617	926.41406	-171.78151	-2.04724	961.97404	-98.82269	103.54013	618.61561	-55.21171	-66.40163	635.23346	-192.15276	29.71643	675.70715	-130.70044	66.56899	329.63859	-192.27460	118.87610	310.96795	-387.31677	133.48647	125.47423	-379.94598	63.94801	134.49679	-399.11893	94.55587	173.96536	-358.69144	95.96629	86.37812	7.44679	-1.08914	375.62161	-17.75134	-64.53770	335.74609	-71.03390	-109.32372	73.67945	-99.18702	-44.49501	80.42920	-123.13423	-89.64134	104.00131	-37.52332	-64.05077	67.08188	-176.40284	-38.12386	683.27481	-164.88687	5.70054	770.05786	-15.66470	-134.09056	447.54188	-179.11816	182.79367	438.44380	-22.53791	-146.26906	232.37196	-269.27273	188.30880	233.59410	
248	2.470	-31.32159	9.72406	928.71790	-161.60604	-1.18486	963.38407	-86.86753	101.38718	618.45306	-45.05872	-68.73216	638.83634	-180.78463	30.06715	677.67830	-112.08561	62.77449	330.27211	-173.19513	115.49012	310.52977	-371.17273	131.00719	129.11330	-363.66213	61.33368	136.86430	-382.11111	91.65751	177.13392	-343.24798	93.96836	88.93799	10.33500	-6.31467	375.98287	-16.28747	-69.31298	336.80841	-71.33145	-110.54753	73.95414	-99.33614	-45.75077	81.71644	-123.22481	-91.19736	104.93427	-37.90594	-65.15110	67.40448	-165.54111	-37.94700	686.98489	-153.61123	6.95466	771.73545	-10.93752	-138.54151	448.64042	-162.65590	179.67104	438.15639	-22.34548	-149.85913	231.99485	-250.90285	185.06148	235.23641	
249	2.480	-21.08480	10.92570	931.51358	-151.50173	0.04344	965.38956	-75.11222	99.14515	619.09624	-35.23666	-71.18045	642.75481	-169.61063	30.25350	680.29811	-93.49314	59.13089	332.08638	-154.12533	112.22447	311.12487	-353.89636	128.12903	132.42290	-345.80575	58.38005	138.90680	-364.11789	88.16823	179.74680	-326.05002	91.84920	91.51876	12.39678	-11.58544	376.69547	-15.66341	-74.18770	338.27712	-71.58779	-111.56253	74.43014	-99.35162	-46.78275	83.14963	-123.35708	-92.50884	105.94732	-38.16510	-66.07619	67.87248	-154.93732	-37.91350	691.06425	-142.64108	8.05729	774.03343	-6.88699	-143.05002	450.04960	-146.26702	176.70539	438.83651	-22.84168	-153.47354	231.92782	-232.57215	181.72170	237.57553	
250	2.490	-10.99208	12.42294	934.72326	-141.45219	1.57617	967.91742	-63.55245	96.86382	620.50858	-25.68655	-73.68686	646.85271	-158.61264	30.24989	683.46847	-74.96011	55.78628	335.03201	-135.14949	109.16190	312.72842	-335.55207	124.81993	135.28635	-326.42183	55.07302	140.55063	-345.19087	84.06570	181.72082	-307.15165	89.57614	94.02703	13.73386	-16.72499	377.65178	-15.73496	-79.00962	340.03726	-71.77902	-112.33926	75.06266	-99.19318	-47.56061	84.65880	-123.49234	-93.52493	106.99521	-38.26756	-66.80628	68.43387	-144.54647	-38.04838	695.38298	-131.95638	8.94492	776.86429	-3.37779	-147.47525	451.64502	-130.04180	173.97589	440.45034	-23.93454	-156.99436	232.12118	-214.38065	178.32948	240.52110	
251	2.500	-1.02173	14.17530	938.24367	-131.43812	3.33976	970.87155	-52.18185	94.59583	622.60738	-16.35306	-76.19141	650.99603	-147.77793	30.05440	687.06153	-56.49652	52.87297	339.00686	-116.31491	106.37436	315.25761	-316.19369	121.07008	137.60805	-305.58759	51.41689	141.75401	-325.37088	79.37071	183.01056	-286.64298	87.11553	96.37842	14.48801	-21.59663	378.76655	-16.32909	-83.64675	341.98855	-71.89851	-112.86252	75.82733	-98.84508	-48.06913	86.20182	-123.60225	-94.21125	108.06381	-38.20526	-67.33422	69.05359	-134.33069	-38.35527	699.80668	-121.53291	9.57636	780.11761	-0.27130	-151.70036	453.31844	-114.04837	171.55002	442.90525	-25.51062	-160.32285	232.53462	-196.36498	174.92418	243.92568	
252	2.510	8.85277	16.13190	941.95107	-121.43881	5.25333	974.13841	-40.99288	92.39318	625.26996	-7.18891	-78.63742	655.06022	-137.10050	29.68813	690.92678	-38.09037	50.49400	343.86841	-97.63054	103.91720	318.58189	-295.86287	116.90016	139.32292	-283.40883	47.43965	142.51169	-304.69007	74.15240	183.61302	-264.64336	84.44148	98.50588	14.83134	-26.10957	379.97405	-17.25461	-87.99691	344.04702	-71.94178	-113.13698	76.71235	-98.30627	-48.31406	87.75896	-123.65809	-94.56012	109.16056	-37.98222	-67.66761	69.70985	-124.26310	-38.81633	704.20222	-111.34547	9.93534	783.66661	2.56836	-155.63758	454.98375	-98.32906	169.47825	446.05872	-27.42973	-163.38746	233.13358	-178.49707	171.54488	247.60294	
253	2.520	18.66044	18.23424	945.70796	-111.43388	7.23402	977.59365	-29.97712	90.30352	628.34294	1.84250	-80.97494	658.93573	-126.58089	29.19180	694.89952	-19.71478	48.71252	349.44839	-79.06995	101.82475	322.53720	-274.59019	112.36677	140.40235	-260.01427	43.19603	142.85404	-283.17606	68.52790	183.56655	-241.29276	81.54460	100.36526	14.95307	-30.21803	381.22259	-18.31445	-91.99228	346.14374	-71.89760	-113.18969	77.70999	-97.58368	-48.32454	89.32520	-123.62546	-94.59607	110.30345	-37.60559	-67.82907	70.38934	-114.32947	-39.39474	708.44304	-101.37033	10.03052	787.37528	5.26912	-159.22953	456.57848	-82.89965	167.78980	449.73168	-29.52649	-166.14738	233.88495	-160.68940	168.23179	251.35070	
